<svg xmlns="http://www.w3.org/2000/svg" xmlns:xlink="http://www.w3.org/1999/xlink" width="2000" zoomAndPan="magnify" viewBox="0 0 1500 1499.999933" height="2000" preserveAspectRatio="xMidYMid meet" version="1.0"><defs><g/><clipPath id="813941d77f"><rect x="0" width="1401" y="0" height="636"/></clipPath></defs><g transform="matrix(1, 0, 0, 1, 38, 432)"><g clip-path="url(#813941d77f)"><g fill="#9440dd" fill-opacity="1"><g transform="translate(1.902323, 484.646265)"><g><path d="M 22.984375 0.515625 L 18.8125 -2.09375 L 16.71875 -5.21875 L 16.1875 -8.875 L 15.671875 -12.015625 L 16.1875 -15.15625 L 18.28125 -20.375 L 19.84375 -25.59375 L 20.375 -29.25 L 20.890625 -32.390625 L 22.984375 -39.171875 L 22.984375 -47.015625 L 25.078125 -53.796875 L 25.078125 -57.46875 L 25.59375 -60.59375 L 26.640625 -67.390625 L 27.6875 -72.09375 L 27.6875 -78.359375 L 30.296875 -85.671875 L 31.34375 -88.796875 L 32.90625 -92.453125 L 32.390625 -95.59375 L 33.953125 -102.390625 L 35.515625 -106.046875 L 35.515625 -109.171875 L 36.046875 -112.3125 L 37.09375 -119.625 L 38.140625 -122.765625 L 38.140625 -130.078125 L 38.65625 -133.203125 L 39.171875 -136.859375 L 39.171875 -140 L 41.265625 -147.3125 L 41.265625 -150.96875 L 43.875 -158.28125 L 45.96875 -173.953125 L 48.0625 -181.265625 L 48.0625 -183.875 L 51.1875 -198.5 L 52.234375 -205.296875 L 53.28125 -211.5625 L 55.890625 -218.359375 L 56.421875 -222.53125 L 56.421875 -229.84375 L 59.03125 -236.640625 L 59.03125 -240.296875 L 60.078125 -246.5625 L 61.640625 -257.53125 L 61.125 -261.703125 L 62.6875 -265.890625 L 64.78125 -273.203125 L 65.8125 -277.375 L 64.78125 -281.03125 L 65.8125 -285.21875 L 66.34375 -292 L 67.390625 -297.75 L 69.46875 -300.890625 L 69.46875 -304.546875 L 70 -308.203125 L 70 -311.328125 L 72.09375 -315 L 72.609375 -323.34375 L 74.171875 -331.703125 L 76.265625 -337.984375 L 76.796875 -344.25 L 76.796875 -347.90625 L 77.828125 -351.03125 L 80.453125 -361.484375 L 82.015625 -364.625 L 90.375 -365.65625 L 102.90625 -365.65625 L 122.234375 -365.140625 L 142.609375 -365.140625 L 153.0625 -364.625 L 154.625 -358.34375 L 154.09375 -354.6875 L 154.09375 -351.03125 L 150.96875 -338.5 L 150.96875 -334.84375 L 149.921875 -331.703125 L 148.359375 -320.734375 L 147.3125 -315 L 146.265625 -309.765625 L 142.09375 -291.484375 L 140.515625 -284.171875 L 140.515625 -280 L 138.421875 -272.6875 L 137.390625 -265.359375 L 135.296875 -261.703125 L 136.34375 -257.53125 L 135.296875 -253.359375 L 134.765625 -249.6875 L 133.734375 -246.03125 L 132.15625 -238.71875 L 130.59375 -231.9375 L 128.5 -228.28125 L 129.03125 -224.09375 L 127.984375 -220.4375 L 127.984375 -216.265625 L 126.421875 -205.296875 L 125.375 -201.640625 L 125.375 -194.328125 L 124.328125 -190.671875 L 122.765625 -182.828125 L 122.234375 -179.171875 L 120.140625 -170.8125 L 119.625 -162.984375 L 118.0625 -155.671875 L 117.53125 -151.484375 L 117.015625 -147.828125 L 114.921875 -139.46875 L 114.921875 -135.8125 L 113.875 -131.640625 L 113.359375 -124.328125 L 111.265625 -117.53125 L 110.75 -110.75 L 109.703125 -106.046875 L 109.703125 -100.8125 L 109.171875 -97.15625 L 108.65625 -94.03125 L 107.609375 -90.375 L 107.09375 -84.625 L 106.046875 -79.40625 L 106.046875 -74.171875 L 108.65625 -71.5625 L 113.875 -71.5625 L 118.578125 -71.046875 L 145.75 -71.046875 L 157.234375 -71.5625 L 170.8125 -71.5625 L 173.953125 -70 L 173.421875 -62.15625 L 172.390625 -58.5 L 172.90625 -54.84375 L 171.34375 -50.671875 L 168.734375 -32.390625 L 167.15625 -28.734375 L 167.15625 -25.078125 L 166.640625 -21.9375 L 165.59375 -14.109375 L 163.5 -5.75 L 159.328125 -2.09375 L 149.40625 -2.09375 L 142.609375 -1.046875 L 131.109375 0.515625 L 121.71875 0 L 113.875 0.515625 L 106.5625 -0.515625 L 96.109375 0 L 53.28125 0 L 48.0625 0.515625 L 33.4375 0.515625 L 29.78125 0 Z M 22.984375 0.515625 "/></g></g></g><g fill="#ffd21f" fill-opacity="1"><g transform="translate(185.787248, 484.646265)"><g><path d="M 31.859375 1.5625 L 14.109375 -2.609375 L 10.453125 -9.921875 L 12.53125 -19.328125 L 12.53125 -25.59375 L 14.109375 -36.5625 L 14.109375 -39.703125 L 15.15625 -47.015625 L 17.765625 -54.84375 L 20.375 -57.984375 L 21.9375 -61.125 L 23.5 -65.296875 L 26.640625 -69.46875 L 28.734375 -73.65625 L 32.90625 -78.875 L 36.046875 -83.0625 L 38.140625 -86.71875 L 39.703125 -88.796875 L 44.40625 -94.03125 L 48.0625 -98.734375 L 50.671875 -103.4375 L 55.890625 -109.171875 L 62.15625 -115.96875 L 65.8125 -120.671875 L 74.703125 -129.546875 L 76.265625 -133.203125 L 79.921875 -138.421875 L 84.109375 -144.171875 L 87.765625 -149.40625 L 91.9375 -153.578125 L 94.546875 -157.234375 L 97.15625 -162.984375 L 105 -170.8125 L 109.703125 -175 L 110.75 -178.125 L 113.359375 -181.265625 L 121.71875 -193.796875 L 125.890625 -199.546875 L 128.5 -202.6875 L 130.59375 -205.8125 L 133.203125 -208.421875 L 135.8125 -211.5625 L 138.421875 -215.21875 L 141.5625 -220.4375 L 143.65625 -224.09375 L 148.875 -231.40625 L 151.484375 -236.109375 L 154.09375 -241.859375 L 155.671875 -245 L 157.234375 -250.21875 L 158.796875 -253.359375 L 160.375 -259.09375 L 161.9375 -268.5 L 162.984375 -275.8125 L 162.984375 -283.65625 L 162.453125 -289.390625 L 160.375 -295.671875 L 157.234375 -299.328125 L 154.625 -301.9375 L 149.40625 -302.984375 L 145.21875 -304.015625 L 139.46875 -304.015625 L 135.296875 -303.5 L 131.640625 -302.453125 L 128.5 -300.359375 L 124.84375 -298.28125 L 121.71875 -294.09375 L 119.09375 -290.96875 L 117.015625 -287.3125 L 114.40625 -280.515625 L 113.359375 -276.34375 L 112.3125 -271.109375 L 110.21875 -262.234375 L 109.171875 -254.390625 L 108.125 -247.078125 L 107.09375 -243.421875 L 107.09375 -239.765625 L 105 -235.0625 L 99.78125 -233.5 L 80.453125 -233.5 L 76.265625 -234.03125 L 69.46875 -233.5 L 65.296875 -234.03125 L 59.546875 -233.5 L 50.671875 -234.03125 L 47.53125 -235.0625 L 44.40625 -237.6875 L 43.875 -245 L 44.40625 -252.828125 L 44.921875 -259.09375 L 45.453125 -262.75 L 45.453125 -268.5 L 46.484375 -275.296875 L 47.015625 -281.03125 L 48.0625 -285.734375 L 49.625 -292.53125 L 49.625 -296.1875 L 51.1875 -299.84375 L 51.71875 -303.5 L 53.28125 -307.15625 L 53.796875 -310.8125 L 56.421875 -318.65625 L 59.546875 -324.921875 L 62.6875 -330.65625 L 66.34375 -337.453125 L 73.65625 -346.859375 L 75.75 -349.984375 L 82.015625 -355.734375 L 89.328125 -359.921875 L 94.03125 -361.484375 L 97.6875 -364.09375 L 103.4375 -366.1875 L 109.171875 -367.75 L 115.4375 -368.796875 L 124.328125 -369.84375 L 129.546875 -369.84375 L 135.8125 -370.359375 L 140.515625 -370.359375 L 146.265625 -370.890625 L 151.484375 -370.359375 L 158.796875 -370.890625 L 171.859375 -369.3125 L 183.875 -366.703125 L 191.71875 -364.625 L 199.03125 -361.484375 L 203.71875 -359.921875 L 207.390625 -358.34375 L 208.953125 -356.265625 L 212.078125 -354.6875 L 214.703125 -352.078125 L 219.390625 -346.859375 L 223.578125 -342.15625 L 225.671875 -337.453125 L 228.28125 -331.1875 L 230.890625 -324.390625 L 231.40625 -321.265625 L 232.453125 -317.078125 L 234.03125 -309.765625 L 234.546875 -302.453125 L 234.546875 -290.4375 L 234.03125 -284.171875 L 234.03125 -276.34375 L 232.984375 -268.5 L 232.453125 -264.328125 L 231.40625 -257.53125 L 230.375 -252.3125 L 229.328125 -248.125 L 228.28125 -241.34375 L 227.234375 -238.71875 L 225.140625 -234.546875 L 223.578125 -230.375 L 222.53125 -227.234375 L 219.390625 -220.4375 L 217.828125 -216.78125 L 215.734375 -212.078125 L 213.125 -207.390625 L 211.046875 -201.640625 L 207.90625 -197.984375 L 207.390625 -194.84375 L 202.15625 -188.578125 L 200.0625 -185.4375 L 197.984375 -181.265625 L 194.328125 -175.515625 L 189.09375 -169.765625 L 186.484375 -166.640625 L 182.3125 -160.890625 L 176.5625 -153.578125 L 175 -150.4375 L 171.859375 -147.3125 L 169.765625 -143.125 L 164.546875 -136.859375 L 160.375 -132.15625 L 157.234375 -126.9375 L 154.09375 -124.328125 L 148.875 -119.09375 L 144.703125 -113.359375 L 141.5625 -109.171875 L 137.390625 -106.046875 L 133.734375 -100.8125 L 129.03125 -95.59375 L 125.890625 -91.421875 L 123.796875 -89.328125 L 120.140625 -84.109375 L 114.921875 -79.40625 L 112.3125 -76.265625 L 107.609375 -70.515625 L 108.65625 -67.90625 L 112.828125 -66.859375 L 123.28125 -67.390625 L 146.265625 -67.390625 L 155.671875 -67.90625 L 182.3125 -67.90625 L 188.578125 -67.390625 L 195.890625 -68.4375 L 200.0625 -68.953125 L 203.71875 -68.4375 L 205.8125 -64.78125 L 206.34375 -52.765625 L 205.296875 -44.921875 L 205.296875 -38.65625 L 204.25 -35 L 204.25 -30.8125 L 203.71875 -26.640625 L 202.6875 -22.46875 L 201.640625 -16.71875 L 201.640625 -10.96875 L 199.03125 -5.21875 L 193.796875 -1.046875 L 185.4375 0 L 176.046875 -1.046875 L 156.71875 0 L 142.609375 0 L 138.421875 0.515625 L 115.4375 0.515625 L 111.265625 -0.515625 L 107.09375 0.515625 L 89.84375 0.515625 L 86.1875 -0.515625 L 82.53125 -0.515625 L 73.65625 0 L 56.9375 0 L 53.28125 -0.515625 L 46.484375 0 L 42.3125 0.515625 Z M 31.859375 1.5625 "/></g></g></g><g fill="#561269" fill-opacity="1"><g transform="translate(404.149253, 484.646265)"><g><path d="M 76.796875 0.515625 L 66.859375 0 L 53.28125 0 L 49.625 -0.515625 L 21.9375 -0.515625 L 17.234375 -1.5625 L 15.671875 -6.265625 L 17.234375 -10.96875 L 18.28125 -15.671875 L 19.328125 -23.5 L 20.375 -31.859375 L 22.46875 -39.703125 L 22.984375 -48.0625 L 24.546875 -52.234375 L 24.546875 -56.9375 L 25.59375 -60.59375 L 25.59375 -64.25 L 26.640625 -68.4375 L 27.15625 -72.09375 L 27.6875 -79.40625 L 28.734375 -86.1875 L 30.8125 -90.375 L 31.859375 -98.734375 L 31.859375 -102.390625 L 32.90625 -106.5625 L 33.953125 -113.359375 L 33.953125 -115.96875 L 36.046875 -122.234375 L 35.515625 -125.375 L 37.09375 -132.15625 L 38.65625 -135.8125 L 39.171875 -139.46875 L 40.75 -147.3125 L 41.796875 -150.96875 L 43.875 -161.9375 L 43.875 -169.765625 L 45.96875 -177.078125 L 47.015625 -184.921875 L 48.578125 -188.578125 L 49.109375 -192.75 L 49.625 -196.40625 L 49.625 -200.0625 L 51.71875 -203.203125 L 54.84375 -218.875 L 56.421875 -223.046875 L 57.46875 -226.703125 L 56.9375 -229.84375 L 58.5 -237.15625 L 60.59375 -245 L 61.125 -259.625 L 62.6875 -263.28125 L 63.203125 -274.25 L 65.296875 -277.375 L 66.34375 -281.5625 L 66.859375 -285.21875 L 66.34375 -288.34375 L 66.859375 -292 L 68.953125 -298.796875 L 70 -306.109375 L 71.5625 -309.25 L 71.5625 -312.90625 L 73.125 -316.5625 L 72.609375 -319.6875 L 73.65625 -323.34375 L 74.171875 -330.140625 L 75.21875 -333.28125 L 75.75 -336.40625 L 76.265625 -343.203125 L 76.796875 -346.328125 L 75.75 -349.984375 L 77.3125 -356.265625 L 78.875 -359.390625 L 79.40625 -362.53125 L 83.578125 -365.65625 L 92.453125 -365.65625 L 95.59375 -366.1875 L 99.25 -365.65625 L 105.515625 -366.1875 L 109.171875 -366.1875 L 113.359375 -365.65625 L 118.578125 -365.65625 L 130.078125 -366.1875 L 169.25 -366.703125 L 181.265625 -366.1875 L 185.4375 -365.65625 L 200.59375 -366.1875 L 212.078125 -366.1875 L 216.78125 -366.703125 L 222.015625 -366.1875 L 226.703125 -365.65625 L 229.328125 -362 L 227.75 -356.265625 L 227.75 -353.125 L 226.703125 -340.0625 L 226.703125 -336.9375 L 225.140625 -333.28125 L 224.625 -329.625 L 224.09375 -326.484375 L 222.53125 -318.65625 L 222.53125 -314.46875 L 220.4375 -307.15625 L 219.921875 -304.015625 L 218.359375 -297.234375 L 213.125 -296.703125 L 191.1875 -296.703125 L 184.921875 -296.1875 L 150.96875 -296.1875 L 138.421875 -295.671875 L 136.859375 -289.390625 L 136.34375 -285.734375 L 136.34375 -278.421875 L 134.765625 -275.296875 L 134.765625 -271.109375 L 133.203125 -261.1875 L 132.15625 -253.875 L 130.59375 -246.5625 L 129.546875 -242.90625 L 130.078125 -238.71875 L 128.5 -233.5 L 127.453125 -224.09375 L 136.859375 -224.09375 L 155.140625 -223.578125 L 165.078125 -224.625 L 178.65625 -224.625 L 182.828125 -223.578125 L 185.96875 -219.390625 L 184.921875 -213.125 L 184.921875 -208.953125 L 183.875 -203.203125 L 182.3125 -195.890625 L 181.265625 -192.234375 L 179.703125 -184.390625 L 179.703125 -180.734375 L 178.125 -176.5625 L 177.078125 -169.25 L 175.515625 -160.890625 L 174.46875 -153.578125 L 173.421875 -152.53125 L 168.203125 -152.53125 L 160.375 -152.015625 L 155.671875 -152.015625 L 142.609375 -151.484375 L 133.734375 -152.015625 L 127.984375 -152.015625 L 121.1875 -151.484375 L 116.484375 -151.484375 L 114.40625 -145.75 L 112.828125 -138.953125 L 110.75 -124.328125 L 109.171875 -119.09375 L 108.125 -114.40625 L 107.609375 -109.171875 L 106.5625 -105.515625 L 105 -96.109375 L 102.90625 -82.53125 L 102.90625 -78.359375 L 105 -76.265625 L 112.3125 -75.21875 L 143.125 -75.21875 L 150.4375 -74.703125 L 161.9375 -74.171875 L 176.5625 -74.703125 L 180.21875 -73.125 L 179.703125 -68.953125 L 179.171875 -66.859375 L 178.125 -61.125 L 177.609375 -56.9375 L 175.515625 -45.453125 L 175.515625 -38.65625 L 174.46875 -35 L 173.421875 -31.859375 L 172.90625 -28.203125 L 171.34375 -20.375 L 170.8125 -11.5 L 169.765625 -6.796875 L 168.203125 -1.046875 L 118.578125 -1.046875 L 110.21875 -0.515625 L 103.4375 -1.046875 L 100.296875 -0.515625 L 89.328125 -0.515625 L 80.96875 0 Z M 76.796875 0.515625 "/></g></g></g><g fill="#561269" fill-opacity="1"><g transform="translate(619.366095, 484.646265)"><g><path d="M 42.3125 1.046875 L 34.484375 0.515625 L 30.8125 0 L -7.3125 -0.515625 L -12.015625 -1.5625 L -13.0625 -5.75 L -12.015625 -9.40625 L -11.5 -12.53125 L -8.359375 -18.8125 L -4.171875 -25.59375 L 1.046875 -41.265625 L 4.171875 -47.53125 L 6.796875 -53.796875 L 12.53125 -66.34375 L 14.625 -73.125 L 18.8125 -82.53125 L 19.84375 -85.671875 L 22.46875 -89.328125 L 25.078125 -95.59375 L 26.125 -98.734375 L 26.640625 -102.390625 L 28.203125 -105.515625 L 30.8125 -112.3125 L 32.390625 -115.96875 L 36.046875 -123.28125 L 37.09375 -126.9375 L 38.140625 -131.640625 L 40.75 -135.8125 L 43.875 -142.09375 L 44.921875 -145.75 L 48.0625 -153.0625 L 48.578125 -156.1875 L 50.140625 -159.84375 L 51.71875 -162.984375 L 54.328125 -170.296875 L 55.890625 -173.421875 L 60.078125 -188.0625 L 61.640625 -192.234375 L 65.296875 -199.03125 L 67.90625 -207.90625 L 71.046875 -213.65625 L 72.609375 -216.78125 L 74.171875 -223.578125 L 76.796875 -227.234375 L 78.359375 -234.03125 L 79.40625 -236.640625 L 82.53125 -243.421875 L 84.109375 -250.734375 L 86.71875 -254.390625 L 88.796875 -257.53125 L 92.984375 -268.5 L 95.59375 -275.296875 L 97.15625 -278.421875 L 100.296875 -283.125 L 101.859375 -288.34375 L 103.4375 -292 L 108.125 -301.40625 L 109.171875 -305.0625 L 110.75 -308.203125 L 111.78125 -311.328125 L 112.828125 -315 L 115.96875 -320.734375 L 118.0625 -323.875 L 119.09375 -326.484375 L 122.234375 -335.890625 L 125.890625 -342.671875 L 130.59375 -352.078125 L 132.15625 -355.734375 L 133.734375 -358.875 L 135.8125 -364.625 L 139.46875 -365.140625 L 144.703125 -365.140625 L 154.625 -364.625 L 159.84375 -365.140625 L 168.203125 -365.140625 L 178.125 -365.65625 L 182.828125 -365.65625 L 186.484375 -364.625 L 191.1875 -365.140625 L 199.546875 -365.140625 L 202.15625 -364.09375 L 205.8125 -361.484375 L 207.390625 -339.015625 L 207.390625 -327.53125 L 208.421875 -324.390625 L 208.421875 -315 L 208.953125 -296.1875 L 208.953125 -288.875 L 209.46875 -282.078125 L 210.515625 -271.640625 L 210.515625 -264.328125 L 211.046875 -256.484375 L 210.515625 -252.828125 L 210.515625 -241.34375 L 211.5625 -234.03125 L 211.5625 -223.578125 L 212.078125 -216.265625 L 211.5625 -213.125 L 212.078125 -206.34375 L 212.078125 -203.203125 L 212.609375 -194.84375 L 213.65625 -189.09375 L 213.65625 -168.734375 L 214.171875 -162.453125 L 214.703125 -158.28125 L 214.703125 -142.609375 L 215.21875 -118.578125 L 215.21875 -114.921875 L 215.734375 -107.09375 L 215.21875 -99.25 L 215.734375 -91.9375 L 215.21875 -88.28125 L 216.265625 -68.4375 L 216.265625 -65.296875 L 216.78125 -58.5 L 217.3125 -54.84375 L 217.3125 -47.015625 L 216.78125 -39.703125 L 217.3125 -35.515625 L 217.3125 -30.8125 L 217.828125 -19.328125 L 217.828125 -8.359375 C 218.179688 -7.316406 218.359375 -5.835938 218.359375 -3.921875 C 218.359375 -2.003906 217.660156 -0.695312 216.265625 0 C 215.222656 0.34375 214.265625 0.425781 213.390625 0.25 C 212.515625 0.0820312 211.554688 0 210.515625 0 L 206.859375 0.515625 L 202.6875 0 L 195.375 0 L 183.875 0.515625 L 179.703125 0.515625 L 173.421875 0 L 169.765625 0.515625 L 164.546875 1.046875 L 157.75 0.515625 L 149.921875 0.515625 L 147.828125 -1.046875 L 146.78125 -6.265625 L 146.265625 -15.671875 L 145.75 -20.890625 L 146.265625 -26.125 L 146.265625 -50.671875 L 145.75 -54.84375 L 134.25 -55.375 L 125.890625 -56.421875 L 102.90625 -56.9375 L 88.796875 -56.9375 L 86.1875 -51.1875 L 82.53125 -44.40625 L 81.484375 -40.75 L 79.921875 -37.09375 L 77.828125 -30.8125 L 72.609375 -20.890625 L 69.46875 -13.0625 L 67.90625 -7.3125 L 66.34375 -4.703125 L 64.25 -1.046875 L 61.125 1.046875 L 46.484375 0.515625 Z M 128.5 -124.84375 L 144.171875 -124.84375 L 147.3125 -127.453125 L 147.828125 -134.765625 L 147.3125 -138.953125 L 147.828125 -143.125 L 147.828125 -156.71875 L 148.359375 -160.375 L 148.359375 -169.25 L 149.40625 -173.421875 L 148.875 -185.96875 L 149.40625 -205.8125 L 149.921875 -224.625 L 149.40625 -236.640625 L 145.21875 -235.0625 L 143.125 -228.28125 L 140.515625 -219.921875 L 138.953125 -214.703125 L 136.34375 -206.34375 L 134.25 -202.15625 L 132.15625 -196.9375 L 131.640625 -193.28125 L 129.546875 -189.625 L 127.984375 -184.921875 L 126.421875 -181.265625 L 124.84375 -176.5625 L 121.71875 -165.078125 L 121.1875 -161.40625 L 118.578125 -153.578125 L 116.484375 -149.921875 L 113.875 -141.046875 L 112.828125 -137.390625 L 111.78125 -132.6875 L 110.21875 -129.03125 L 113.875 -125.890625 L 118.0625 -125.890625 L 123.796875 -125.375 Z M 128.5 -124.84375 "/></g></g></g><g fill="#561269" fill-opacity="1"><g transform="translate(852.343421, 484.646265)"><g><path d="M 68.953125 1.046875 L 50.140625 0.515625 L 43.359375 0.515625 L 27.15625 -0.515625 L 22.46875 -1.5625 L 21.421875 -4.703125 L 21.421875 -9.40625 L 22.984375 -14.625 L 23.5 -19.84375 L 24.03125 -25.59375 L 24.03125 -29.25 L 25.078125 -32.390625 L 25.078125 -36.046875 L 26.640625 -39.703125 L 26.640625 -42.828125 L 27.15625 -46.484375 L 28.734375 -53.796875 L 28.734375 -57.46875 L 30.296875 -61.640625 L 29.78125 -65.296875 L 31.34375 -69.46875 L 31.859375 -76.796875 L 32.90625 -80.96875 L 33.4375 -84.625 L 32.90625 -88.796875 L 35 -92.984375 L 35 -100.8125 L 37.609375 -110.21875 L 37.609375 -114.921875 L 38.65625 -120.140625 L 39.171875 -127.984375 L 39.171875 -132.15625 L 41.265625 -139.46875 L 41.796875 -143.125 L 42.3125 -147.3125 L 42.3125 -152.015625 L 44.921875 -155.671875 L 45.96875 -158.796875 L 45.453125 -161.9375 L 45.96875 -168.203125 L 47.015625 -171.859375 L 48.578125 -175 L 48.578125 -178.125 L 49.625 -181.78125 L 50.671875 -187.53125 L 51.1875 -190.671875 L 52.234375 -197.453125 L 53.28125 -204.765625 L 53.28125 -208.953125 L 55.890625 -219.921875 L 55.890625 -223.578125 L 56.421875 -226.703125 L 56.9375 -230.375 L 57.984375 -237.15625 L 58.5 -240.296875 L 58.5 -243.953125 L 59.03125 -247.078125 L 61.125 -253.359375 L 61.640625 -260.671875 L 62.15625 -263.796875 L 63.734375 -271.109375 L 65.296875 -279.46875 L 66.859375 -286.78125 L 67.390625 -289.921875 L 67.390625 -293.046875 L 67.90625 -299.84375 L 67.90625 -302.984375 L 68.953125 -306.640625 L 70.515625 -312.90625 L 72.09375 -321.265625 L 74.171875 -335.890625 L 74.703125 -340.0625 L 75.21875 -343.71875 L 75.21875 -347.90625 L 77.3125 -352.078125 L 76.796875 -357.828125 L 78.875 -360.4375 L 82.53125 -364.625 L 87.765625 -365.65625 L 95.078125 -365.65625 L 126.421875 -365.140625 L 148.875 -365.140625 L 152.53125 -365.65625 L 157.75 -366.1875 L 161.9375 -365.140625 L 169.765625 -364.09375 L 174.46875 -364.09375 L 181.265625 -363.046875 L 189.09375 -362.53125 L 194.84375 -361.484375 L 203.203125 -361.484375 L 207.390625 -360.4375 L 213.125 -357.828125 L 217.828125 -355.734375 L 221.484375 -354.6875 L 226.1875 -351.5625 L 229.328125 -349.984375 L 231.9375 -348.421875 L 238.203125 -344.765625 L 240.296875 -342.671875 L 242.90625 -339.546875 L 245 -336.9375 L 248.65625 -330.65625 L 252.3125 -323.34375 L 253.875 -315 L 254.921875 -305.0625 L 254.921875 -301.40625 L 256.484375 -291.484375 L 256.484375 -287.3125 L 254.921875 -280 L 254.390625 -276.34375 L 254.921875 -268.5 L 254.921875 -264.84375 L 253.359375 -256.484375 L 252.3125 -248.125 L 250.734375 -242.90625 L 248.65625 -236.640625 L 247.609375 -232.984375 L 246.5625 -229.84375 L 245 -226.1875 L 242.375 -219.921875 L 237.6875 -213.125 L 236.109375 -209.46875 L 234.03125 -204.765625 L 229.84375 -197.984375 L 228.28125 -194.84375 L 222.53125 -188.0625 L 219.921875 -185.4375 L 212.609375 -177.609375 L 202.15625 -170.8125 L 194.84375 -167.15625 L 191.1875 -166.640625 L 191.1875 -161.9375 L 192.75 -157.75 L 195.375 -149.921875 L 195.375 -145.21875 L 196.40625 -138.421875 L 198.5 -135.296875 L 199.03125 -131.109375 L 200.0625 -124.328125 L 201.640625 -121.1875 L 203.203125 -114.40625 L 204.25 -111.265625 L 205.296875 -103.953125 L 206.859375 -100.296875 L 207.90625 -96.109375 L 210 -89.328125 L 210 -86.1875 L 212.609375 -78.359375 L 213.65625 -71.5625 L 219.390625 -52.765625 L 220.4375 -45.453125 L 224.09375 -36.5625 L 224.625 -30.296875 L 225.140625 -26.640625 L 226.1875 -21.9375 L 229.84375 -12.015625 L 228.28125 -5.21875 L 225.671875 -4.703125 L 219.921875 -3.65625 L 213.125 -3.65625 L 202.15625 -2.09375 L 188.578125 -0.515625 L 181.78125 -0.515625 L 176.046875 0 L 171.859375 0 L 167.15625 0.515625 L 164.03125 0 L 159.328125 -4.703125 L 158.28125 -7.3125 L 156.71875 -13.578125 L 155.671875 -16.1875 L 154.09375 -21.9375 L 150.96875 -29.78125 L 150.96875 -33.953125 L 149.40625 -38.140625 L 148.359375 -39.703125 L 147.3125 -46.484375 L 145.75 -50.140625 L 145.75 -53.796875 L 144.171875 -56.9375 L 143.65625 -60.59375 L 142.09375 -66.34375 L 140 -71.5625 L 140 -77.828125 L 136.859375 -87.234375 L 136.34375 -90.890625 L 134.25 -97.15625 L 133.203125 -100.8125 L 132.15625 -107.609375 L 130.078125 -114.40625 L 129.546875 -121.71875 L 128.5 -124.328125 L 126.9375 -131.640625 L 125.890625 -136.859375 L 123.796875 -141.046875 L 122.765625 -145.21875 L 120.671875 -149.40625 L 118.578125 -151.484375 L 114.921875 -152.015625 L 114.40625 -149.921875 L 113.359375 -146.78125 L 111.78125 -139.46875 L 111.265625 -135.296875 L 109.703125 -124.328125 L 109.703125 -115.4375 L 107.09375 -108.65625 L 106.046875 -101.34375 L 106.046875 -98.203125 L 105 -90.890625 L 102.90625 -86.71875 L 102.90625 -75.75 L 101.859375 -71.5625 L 99.78125 -60.59375 L 99.25 -56.421875 L 98.203125 -53.28125 L 98.203125 -49.109375 L 96.640625 -41.796875 L 97.15625 -38.65625 L 96.109375 -35 L 96.109375 -31.859375 L 95.59375 -25.078125 L 95.078125 -21.421875 L 95.078125 -18.28125 L 94.546875 -14.625 L 94.03125 -8.359375 L 92.453125 -4.703125 L 90.890625 0 L 85.671875 -0.515625 L 80.96875 0 L 73.125 0.515625 Z M 136.859375 -214.171875 L 145.21875 -214.171875 L 151.484375 -215.734375 L 154.625 -217.828125 L 159.84375 -220.96875 L 163.5 -223.046875 L 167.15625 -227.234375 L 169.25 -230.375 L 172.90625 -233.5 L 175.515625 -240.296875 L 176.5625 -244.46875 L 177.078125 -247.609375 L 180.734375 -254.921875 L 180.734375 -259.09375 L 182.3125 -263.28125 L 182.828125 -271.640625 L 182.3125 -283.125 L 180.734375 -294.09375 L 178.125 -298.796875 L 174.46875 -302.453125 L 169.765625 -305.0625 L 158.28125 -306.640625 L 145.75 -307.15625 L 141.046875 -305.59375 L 139.46875 -299.84375 L 137.90625 -296.1875 L 136.859375 -287.828125 L 136.34375 -280 L 135.8125 -273.203125 L 134.765625 -269.015625 L 133.203125 -260.671875 L 133.203125 -257.015625 L 132.15625 -249.171875 L 130.59375 -244.46875 L 131.109375 -239.765625 L 130.078125 -235.0625 L 128.5 -226.703125 L 127.984375 -223.046875 L 128.5 -219.390625 L 127.984375 -215.21875 Z M 136.859375 -214.171875 "/></g></g></g><g fill="#561269" fill-opacity="1"><g transform="translate(1097.857793, 484.646265)"><g><path d="M 26.640625 1.046875 L 18.8125 0 L 16.1875 -6.265625 L 17.234375 -10.453125 L 17.234375 -18.8125 L 18.28125 -27.15625 L 20.375 -34.484375 L 20.890625 -38.140625 L 22.46875 -45.453125 L 23.5 -48.0625 L 25.078125 -55.375 L 26.125 -60.078125 L 27.6875 -68.4375 L 27.6875 -72.09375 L 28.734375 -76.265625 L 28.734375 -83.0625 L 30.8125 -86.71875 L 31.34375 -92.984375 L 31.859375 -96.640625 L 33.4375 -102.90625 L 33.953125 -106.046875 L 33.4375 -109.703125 L 34.484375 -116.484375 L 36.5625 -124.84375 L 37.609375 -131.109375 L 38.65625 -135.8125 L 40.21875 -141.5625 L 41.265625 -147.828125 L 41.796875 -151.484375 L 42.828125 -154.625 L 43.359375 -161.40625 L 43.875 -164.546875 L 43.875 -167.6875 L 46.484375 -173.953125 L 47.015625 -177.078125 L 47.53125 -180.734375 L 48.0625 -188.0625 L 48.578125 -193.28125 L 51.1875 -199.546875 L 52.234375 -203.71875 L 53.28125 -208.953125 L 53.28125 -216.265625 L 53.796875 -220.4375 L 55.375 -224.625 L 55.375 -228.796875 L 56.9375 -232.453125 L 56.9375 -236.109375 L 57.984375 -239.765625 L 59.03125 -246.5625 L 60.59375 -252.3125 L 62.15625 -257.015625 L 62.15625 -263.28125 L 62.6875 -266.9375 L 63.734375 -270.0625 L 66.34375 -284.6875 L 66.34375 -288.34375 L 68.4375 -293.046875 L 69.46875 -297.75 L 70 -304.546875 L 70.515625 -308.203125 L 71.046875 -311.328125 L 71.5625 -315 L 72.609375 -318.125 L 73.125 -321.78125 L 74.171875 -328.578125 L 75.21875 -334.84375 L 76.796875 -341.640625 L 76.796875 -345.8125 L 78.359375 -352.609375 L 79.40625 -355.734375 L 80.96875 -358.34375 L 84.109375 -364.09375 L 89.328125 -365.140625 L 96.640625 -365.65625 L 105.515625 -365.140625 L 110.21875 -365.140625 L 117.015625 -365.65625 L 126.9375 -365.140625 L 133.203125 -365.65625 L 141.046875 -365.140625 L 148.359375 -365.140625 L 154.09375 -363.578125 L 157.234375 -358.875 L 157.75 -355.21875 L 159.84375 -349.984375 L 160.890625 -343.71875 L 161.40625 -337.984375 L 163.5 -330.65625 L 165.59375 -318.125 L 167.15625 -309.765625 L 168.734375 -300.890625 L 170.296875 -293.578125 L 172.390625 -283.125 L 173.421875 -278.953125 L 173.953125 -275.296875 L 175 -267.453125 L 176.5625 -260.671875 L 176.5625 -257.53125 L 178.125 -251.78125 L 178.125 -248.125 L 178.65625 -242.375 L 180.21875 -234.546875 L 181.265625 -225.671875 L 182.828125 -216.78125 L 183.359375 -208.421875 L 184.390625 -201.109375 L 185.4375 -196.9375 L 187.015625 -182.828125 L 189.09375 -170.8125 L 190.140625 -159.328125 L 190.140625 -155.671875 L 191.1875 -152.015625 L 192.234375 -145.75 L 193.796875 -131.640625 L 195.375 -120.140625 L 196.9375 -120.140625 L 197.453125 -130.59375 L 198.5 -143.125 L 198.5 -150.4375 L 200.0625 -175.515625 L 201.640625 -186.484375 L 201.640625 -204.25 L 203.203125 -211.5625 L 203.71875 -214.703125 L 204.25 -218.359375 L 204.765625 -222.53125 L 205.296875 -229.84375 L 206.34375 -232.984375 L 207.390625 -240.296875 L 207.390625 -243.421875 L 209.46875 -250.21875 L 209.46875 -256.484375 L 210 -262.75 L 210 -266.40625 L 213.125 -272.6875 L 212.609375 -276.34375 L 214.171875 -285.734375 L 214.171875 -288.875 L 215.734375 -295.671875 L 216.265625 -299.328125 L 217.3125 -302.453125 L 218.359375 -309.765625 L 218.875 -313.953125 L 220.4375 -321.265625 L 221.484375 -324.921875 L 223.046875 -329.09375 L 223.046875 -333.796875 L 223.578125 -336.9375 L 225.140625 -345.296875 L 227.234375 -356.265625 L 231.40625 -363.578125 L 233.5 -365.140625 L 243.421875 -367.234375 L 254.390625 -366.1875 L 258.046875 -366.703125 L 263.28125 -366.703125 L 275.296875 -366.1875 L 280.515625 -366.1875 L 287.828125 -366.703125 L 295.140625 -365.140625 L 298.28125 -363.578125 L 298.796875 -359.390625 L 298.796875 -355.21875 L 297.234375 -347.90625 L 297.75 -343.71875 L 296.1875 -332.234375 L 295.140625 -324.921875 L 292 -312.375 L 290.4375 -306.640625 L 288.875 -297.234375 L 287.828125 -293.046875 L 286.265625 -282.078125 L 284.171875 -273.71875 L 283.125 -265.359375 L 281.5625 -260.671875 L 280.515625 -256.484375 L 279.46875 -252.828125 L 279.46875 -246.03125 L 278.421875 -242.375 L 276.34375 -226.703125 L 274.765625 -222.015625 L 274.25 -216.265625 L 273.71875 -212.609375 L 272.6875 -208.421875 L 271.109375 -201.640625 L 270.0625 -197.984375 L 268.5 -191.1875 L 267.453125 -183.875 L 266.40625 -179.703125 L 266.9375 -175 L 265.890625 -171.859375 L 265.359375 -168.203125 L 264.328125 -165.078125 L 263.796875 -161.40625 L 263.28125 -158.28125 L 263.28125 -151.484375 L 261.703125 -148.359375 L 260.140625 -141.046875 L 259.09375 -136.34375 L 258.578125 -131.640625 L 258.046875 -128.5 L 257.53125 -124.84375 L 257.015625 -121.71875 L 257.015625 -118.578125 L 254.921875 -111.265625 L 253.875 -103.953125 L 252.828125 -98.734375 L 250.734375 -94.03125 L 248.65625 -87.765625 L 248.125 -82.015625 L 247.609375 -75.21875 L 246.5625 -68.4375 L 245 -64.25 L 242.90625 -56.9375 L 242.90625 -48.578125 L 240.296875 -41.796875 L 240.296875 -38.65625 L 239.25 -35 L 237.6875 -28.203125 L 235.0625 -11.5 L 230.375 -5.21875 L 225.140625 -1.5625 L 217.828125 -1.046875 L 212.078125 0 L 210 0 L 200.0625 -0.515625 L 196.40625 0 L 191.1875 -0.515625 L 188.0625 0 L 177.609375 0 L 170.8125 -0.515625 L 161.9375 -0.515625 L 157.75 -4.171875 L 153.578125 -12.53125 L 150.96875 -19.84375 L 150.4375 -22.46875 L 149.921875 -28.734375 L 149.40625 -31.859375 L 148.359375 -42.828125 L 147.828125 -45.96875 L 145.75 -56.9375 L 145.21875 -60.078125 L 144.171875 -67.390625 L 143.65625 -75.21875 L 142.09375 -80.96875 L 140.515625 -88.796875 L 140.515625 -91.9375 L 138.953125 -99.25 L 138.421875 -102.390625 L 136.859375 -109.703125 L 136.34375 -112.828125 L 136.34375 -120.671875 L 134.25 -131.109375 L 133.203125 -141.046875 L 131.109375 -155.671875 L 128.5 -172.390625 L 126.9375 -187.015625 L 123.796875 -205.8125 L 120.671875 -225.671875 L 119.09375 -225.671875 L 118.578125 -211.046875 L 118.0625 -200.59375 L 117.53125 -194.84375 L 116.484375 -185.96875 L 115.96875 -172.90625 L 112.3125 -147.828125 L 110.21875 -127.453125 L 109.171875 -124.328125 L 107.609375 -117.53125 L 108.65625 -113.875 L 107.09375 -107.609375 L 106.046875 -103.953125 L 106.5625 -100.296875 L 106.046875 -97.15625 L 105 -89.84375 L 102.90625 -82.015625 L 100.8125 -71.5625 L 99.78125 -64.25 L 99.25 -61.125 L 98.203125 -57.46875 L 96.109375 -42.3125 L 94.546875 -35.515625 L 94.03125 -31.859375 L 94.03125 -25.078125 L 92.984375 -21.9375 L 91.421875 -12.53125 L 89.328125 -6.265625 L 87.765625 -1.046875 L 82.015625 1.046875 Z M 26.640625 1.046875 "/></g></g></g></g></g></svg>